<svg width="32" height="32" viewBox="0 0 32 32" fill="none" xmlns="http://www.w3.org/2000/svg">
<g clip-path="url(#clip0_3_97)">
<path fill-rule="evenodd" clip-rule="evenodd" d="M15.9994 0.398711C7.16465 0.398711 0 7.56216 0 16.3981C0 23.4677 4.5839 29.463 10.9413 31.5796C11.7415 31.7278 12.0356 31.2317 12.0356 30.8089C12.0356 30.4274 12.0197 29.1671 12.0132 27.8313C7.56155 28.7992 6.62315 25.9427 6.62315 25.9427C5.89555 24.093 4.8467 23.6011 4.8467 23.6011C3.3951 22.6072 4.95715 22.629 4.95715 22.629C6.56345 22.7413 7.40915 24.2767 7.40915 24.2767C8.83715 26.7228 11.1533 26.0147 12.0657 25.6066C12.2098 24.5726 12.6232 23.8663 13.0815 23.4665C9.52745 23.0631 5.7916 21.6907 5.7916 15.5595C5.7916 13.8132 6.4176 12.3852 7.43985 11.2655C7.27335 10.8616 6.7253 9.23516 7.594 7.03176C7.594 7.03176 8.9375 6.60126 11.9955 8.67176C13.2711 8.31801 14.6393 8.13966 15.9983 8.13376C17.3582 8.13966 18.729 8.31741 20.0064 8.67176C23.0602 6.60246 24.4025 7.03176 24.4025 7.03176C25.2724 9.23576 24.7267 10.8633 24.5602 11.2655C25.586 12.3852 26.2066 13.8132 26.2066 15.5595C26.2066 21.7048 22.4625 23.056 18.9008 23.4523C19.4748 23.9483 19.9874 24.9222 19.9874 26.4139C19.9874 28.5535 19.9692 30.2779 19.9692 30.8041C19.9692 31.2299 20.2574 31.7278 21.0688 31.5718C27.4226 29.4541 32.0006 23.4581 32.0006 16.3927C32.0006 7.55796 24.8372 0.393311 16.0006 0.393311L15.9995 0.398661L15.9994 0.398711Z" fill="white"/>
</g>
<defs>
<clipPath id="clip0_3_97">
<rect width="32" height="32" fill="white"/>
</clipPath>
</defs>
</svg>
